<?xml version="1.0" encoding="utf-8"?>
<!-- Generator: Adobe Illustrator 22.1.0, SVG Export Plug-In . SVG Version: 6.00 Build 0)  -->
<svg version="1.1" id="Layer_1" xmlns="http://www.w3.org/2000/svg" xmlns:xlink="http://www.w3.org/1999/xlink" x="0px" y="0px"
	 viewBox="0 0 368.7 108.4" style="enable-background:new 0 0 368.7 108.4;" xml:space="preserve">
<style type="text/css">
	.st0{opacity:0.68;}
	.st1{opacity:0.86;fill:url(#SVGID_1_);enable-background:new    ;}
	.st2{opacity:0.74;}
	.st3{opacity:0.85;fill:url(#SVGID_2_);enable-background:new    ;}
</style>
<g id="XMLID_1_" class="st0">
	<linearGradient id="SVGID_1_" gradientUnits="userSpaceOnUse" x1="28.5806" y1="-49.503" x2="350.3278" y2="136.2579">
		<stop  offset="0" style="stop-color:#FF4628"/>
		<stop  offset="1" style="stop-color:#D4145A"/>
	</linearGradient>
	<path class="st1" d="M375.3,92.9l-19.2-4c-5.1-1.6-18.9-3.2-34.9-5.3c-18.3-2.4-37-1.4-54.8,2.7l-9.5,2.2l-32.1,6.9
		c-20.9,2.9-26.9-12.1-64.2-5.8c0,0-23.9,6.4-40.3,2.9c-15.8-3.3-26.9-8.1-38.1-11c-17.3-4.4-23.7-4.2-36.6-4.6
		C12.7,75.8,0,83.6,0,83.6V0h373.5L375.3,92.9z"/>
</g>
<g id="XMLID_2_" class="st2">
	<linearGradient id="SVGID_2_" gradientUnits="userSpaceOnUse" x1="28.5806" y1="-49.503" x2="350.3278" y2="136.2579">
		<stop  offset="0" style="stop-color:#FF4628"/>
		<stop  offset="1" style="stop-color:#D4145A"/>
	</linearGradient>
	<path class="st3" d="M375.3,92.9L375.3,92.9c-10.5-8.9-22.4-4.5-37.7-2.8c-6.1,0.6-36.2,8.4-56.8,8.1c-17.7-0.2-40.5-4.3-58.3-1.2
		c-23.2,4.1-58.3-1.2-94.1-2.9C91.9,92.4,90,95.8,55.8,92C39.4,90.2,5.2,84.6,0,83.6l0,0V0h373.5L375.3,92.9z"/>
</g>
</svg>
