<?xml version="1.0" encoding="utf-8"?>
<!-- Generator: Adobe Illustrator 22.1.0, SVG Export Plug-In . SVG Version: 6.00 Build 0)  -->
<svg version="1.1" id="Layer_1" xmlns="http://www.w3.org/2000/svg" xmlns:xlink="http://www.w3.org/1999/xlink" x="0px" y="0px"
	 viewBox="0 0 482 378" style="enable-background:new 0 0 482 378;" xml:space="preserve">
<style type="text/css">
	.st0{opacity:0.68;}
	.st1{opacity:0.86;fill:url(#SVGID_1_);enable-background:new    ;}
	.st2{opacity:0.74;}
	.st3{opacity:0.85;fill:url(#SVGID_2_);enable-background:new    ;}
</style>
<g id="XMLID_1_" class="st0">
	<linearGradient id="SVGID_1_" gradientUnits="userSpaceOnUse" x1="-18.8862" y1="15.3913" x2="503.8871" y2="317.2147">
		<stop  offset="0" style="stop-color:#FF4628"/>
		<stop  offset="1" style="stop-color:#D4145A"/>
	</linearGradient>
	<path class="st1" d="M489,343l-29.1-10.6c-6.6-2.4-24.4-4.9-45.1-8c-23.6-3.6-47.9-2.2-70.8,4l-12.3,3.3l-41.5,10.4
		c-27,4.3-34.7-18.2-83-8.7c0,0-30.9,9.5-52.1,4.3c-20.4-5-34.7-12.1-49.2-16.5c-22.3-6.7-30.6-6.2-47.3-6.9
		C16.1,312.7-10,329.1-10,329.1V0h499V343z"/>
</g>
<g id="XMLID_2_" class="st2">
	<linearGradient id="SVGID_2_" gradientUnits="userSpaceOnUse" x1="-17.1143" y1="15.7864" x2="504.309" y2="316.8303">
		<stop  offset="0" style="stop-color:#FF4628"/>
		<stop  offset="1" style="stop-color:#D4145A"/>
	</linearGradient>
	<path class="st3" d="M489,343.3l-6.2-6.2c-13.5-13.3-28.8-6.7-48.5-4.2c-7.9,1-46.5,12.6-73.1,12.1c-22.8-0.3-52.1-6.4-75-1.7
		c-29.8,6.1-75-1.7-121.1-4.3c-47-2.7-68.7,0.9-95.2,0.9c-21.1,0-62-7.4-68.7-8.8l-9.1-2V0h497V343.3z"/>
</g>
</svg>
