<?xml version="1.0" encoding="utf-8"?>
<!-- Generator: Adobe Illustrator 22.1.0, SVG Export Plug-In . SVG Version: 6.00 Build 0)  -->
<svg version="1.1" id="Layer_1" xmlns="http://www.w3.org/2000/svg" xmlns:xlink="http://www.w3.org/1999/xlink" x="0px" y="0px"
	 viewBox="0 0 500 108.4" style="enable-background:new 0 0 500 108.4;" xml:space="preserve">
<style type="text/css">
	.st0{opacity:0.68;}
	.st1{opacity:0.86;fill:url(#SVGID_1_);enable-background:new    ;}
	.st2{opacity:0.74;}
	.st3{opacity:0.85;fill:url(#SVGID_2_);enable-background:new    ;}
</style>
<g id="XMLID_1_" class="st0">
	<linearGradient id="SVGID_1_" gradientUnits="userSpaceOnUse" x1="44.3973" y1="-76.8984" x2="461.5196" y2="163.9272">
		<stop  offset="0" style="stop-color:#FF4628"/>
		<stop  offset="1" style="stop-color:#D4145A"/>
	</linearGradient>
	<path class="st1" d="M502.5,92.9l-25.7-4c-6.8-1.6-25.3-3.2-46.7-5.3c-24.5-2.4-49.6-1.4-73.4,2.7L344,88.5l-43,6.9
		c-28,2.9-36-12.1-86-5.8c0,0-32,6.4-54,2.9c-21.1-3.3-36-8.1-51-11c-23.1-4.4-31.7-4.2-49-4.6c-44-1.2-61,6.6-61,6.6V0h500
		L502.5,92.9z"/>
</g>
<g id="XMLID_2_" class="st2">
	<linearGradient id="SVGID_2_" gradientUnits="userSpaceOnUse" x1="44.3973" y1="-76.8984" x2="461.5195" y2="163.9272">
		<stop  offset="0" style="stop-color:#FF4628"/>
		<stop  offset="1" style="stop-color:#D4145A"/>
	</linearGradient>
	<path class="st3" d="M502.5,92.9L502.5,92.9c-14-8.9-30-4.5-50.5-2.8c-8.2,0.6-48.4,8.4-76,8.1c-23.7-0.2-54.2-4.3-78-1.2
		c-31,4.1-78-1.2-126-2.9c-48.9-1.8-69.8-2.2-97.3-2.2C52.7,92,7,84.6,0,83.6l0,0V0h500L502.5,92.9z"/>
</g>
</svg>
