<?xml version="1.0" encoding="utf-8"?>
<!-- Generator: Adobe Illustrator 22.1.0, SVG Export Plug-In . SVG Version: 6.00 Build 0)  -->
<svg version="1.1" id="Layer_1" xmlns="http://www.w3.org/2000/svg" xmlns:xlink="http://www.w3.org/1999/xlink" x="0px" y="0px"
	 viewBox="0 0 500 59.9" style="enable-background:new 0 0 500 59.9;" xml:space="preserve">
<style type="text/css">
	.st0{opacity:0.68;}
	.st1{opacity:0.86;fill:url(#SVGID_1_);enable-background:new    ;}
	.st2{opacity:0.74;}
	.st3{opacity:0.85;fill:url(#SVGID_2_);enable-background:new    ;}
</style>
<g id="XMLID_1_" class="st0">
	
		<linearGradient id="SVGID_1_" gradientUnits="userSpaceOnUse" x1="321.3959" y1="353.6997" x2="176.8338" y2="103.3107" gradientTransform="matrix(-1 0 0 -1 500 266.2079)">
		<stop  offset="0" style="stop-color:#FF4628"/>
		<stop  offset="1" style="stop-color:#D4145A"/>
	</linearGradient>
	<path class="st1" d="M-2.6,17.1l20.9,0c6.9,1.9,25.6,3.8,47.2,6.2c24.8,2.8,50.1,1.7,74.2-3.1l12.8-2.6l43.4-8.1
		c28.3-3.4,36.4,14.1,86.9,6.7c0,0,32.3-7.4,54.6-3.4c21.3,3.9,36.4,9.4,51.5,12.8c23.3,5.2,32,4.8,49.5,5.4
		c44.5,1.3,65.2-18.7,65.2-18.7l-2,47.5H-3.6L-2.6,17.1z"/>
</g>
<g id="XMLID_2_" class="st2">
	
		<linearGradient id="SVGID_2_" gradientUnits="userSpaceOnUse" x1="177.1972" y1="352.1812" x2="323.056" y2="99.5464" gradientTransform="matrix(1 0 0 -1 0 266.2079)">
		<stop  offset="0" style="stop-color:#FF4628"/>
		<stop  offset="1" style="stop-color:#D4145A"/>
	</linearGradient>
	<path class="st3" d="M502.5,14.1L502.5,14.1c-14.2,10.2-30.3,5.1-51.1,3.2c-8.3-0.7-48.9-9.7-76.9-9.3c-24,0.3-54.8,4.9-78.9,1.3
		c-31.3-4.7-78.9,1.3-127.4,3.3c-49.4,2.1-72.3-0.7-100.1-0.7c-22.2,0-65.2,5.7-72.3,6.8l0,0l-1,42.8h510.3L502.5,14.1z"/>
</g>
</svg>
