<?xml version="1.0" encoding="utf-8"?>
<!-- Generator: Adobe Illustrator 22.1.0, SVG Export Plug-In . SVG Version: 6.00 Build 0)  -->
<svg version="1.1" id="Layer_1" xmlns="http://www.w3.org/2000/svg" xmlns:xlink="http://www.w3.org/1999/xlink" x="0px" y="0px"
	 viewBox="0 0 368 59.9" style="enable-background:new 0 0 368 59.9;" xml:space="preserve">
<style type="text/css">
	.st0{opacity:0.68;}
	.st1{opacity:0.86;fill:url(#SVGID_1_);enable-background:new    ;}
	.st2{opacity:0.74;}
	.st3{opacity:0.85;fill:url(#SVGID_2_);enable-background:new    ;}
</style>
<g id="XMLID_1_" class="st0">
	
		<linearGradient id="SVGID_1_" gradientUnits="userSpaceOnUse" x1="369.7335" y1="325.9401" x2="257.1613" y2="130.9593" gradientTransform="matrix(-1 0 0 -1 500 266.2079)">
		<stop  offset="0" style="stop-color:#FF4628"/>
		<stop  offset="1" style="stop-color:#D4145A"/>
	</linearGradient>
	<path class="st1" d="M-2.8,17.1l15.6,0c5.1,1.9,19.1,3.8,35.2,6.2c18.5,2.8,37.4,1.7,55.3-3.1l9.6-2.6l32.4-8.1
		c21.1-3.4,27.1,14.1,64.8,6.7c0,0,24.1-7.4,40.7-3.4c15.9,3.9,27.1,9.4,38.4,12.8c17.4,5.2,23.9,4.8,36.9,5.4
		c33.2,1.3,48.6-18.7,48.6-18.7l-1.5,47.5H-3.6L-2.8,17.1z"/>
</g>
<g id="XMLID_2_" class="st2">
	
		<linearGradient id="SVGID_2_" gradientUnits="userSpaceOnUse" x1="128.9517" y1="324.4744" x2="242.5828" y2="127.6595" gradientTransform="matrix(1 0 0 -1 0 266.2079)">
		<stop  offset="0" style="stop-color:#FF4628"/>
		<stop  offset="1" style="stop-color:#D4145A"/>
	</linearGradient>
	<path class="st3" d="M374,14.1L374,14.1c-10.6,10.2-22.7,5.1-38.1,3.2c-6.2-0.7-36.6-9.7-57.4-9.3c-17.9,0.3-40.9,4.9-58.9,1.3
		c-23.4-4.7-58.9,1.3-95.2,3.3c-36.9,2.1-54-0.7-74.8-0.7c-16.6,0-48.7,5.7-54,6.8l0,0l-0.8,42.8H376L374,14.1z"/>
</g>
</svg>
