<?xml version="1.0" encoding="utf-8"?>
<!-- Generator: Adobe Illustrator 22.1.0, SVG Export Plug-In . SVG Version: 6.00 Build 0)  -->
<svg version="1.1" id="Layer_1" xmlns="http://www.w3.org/2000/svg" xmlns:xlink="http://www.w3.org/1999/xlink" x="0px" y="0px"
	 viewBox="0 0 500 164.9" style="enable-background:new 0 0 500 164.9;" xml:space="preserve">
<style type="text/css">
	.st0{opacity:0.68;}
	.st1{opacity:0.86;fill:url(#SVGID_1_);enable-background:new    ;}
	.st2{opacity:0.74;}
	.st3{opacity:0.85;fill:url(#SVGID_2_);enable-background:new    ;}
</style>
<g id="XMLID_1_" class="st0">
	
		<linearGradient id="SVGID_1_" gradientUnits="userSpaceOnUse" x1="347.3174" y1="-373.3918" x2="160.0438" y2="-49.0243" gradientTransform="matrix(-1 0 0 1 500 310.2079)">
		<stop  offset="0" style="stop-color:#FF4628"/>
		<stop  offset="1" style="stop-color:#D4145A"/>
	</linearGradient>
	<path class="st1" d="M-8.5,29.9l30.2,12.2c6.8,2.8,25.3,5.6,46.7,9.2c24.5,4.1,49.6,2.5,73.4-4.6l12.7-3.8l43-12c28-5,36,21,86,10
		c0,0,32-11,54-5c21.1,5.8,36,14,51,19c23.1,7.7,31.7,7.2,49,8c44,2,71-17,71-17v118l-517,1V29.9z"/>
</g>
<g id="XMLID_2_" class="st2">
	
		<linearGradient id="SVGID_2_" gradientUnits="userSpaceOnUse" x1="162.7726" y1="-363.1134" x2="344.8051" y2="-47.8238" gradientTransform="matrix(1 0 0 1 0 310.2079)">
		<stop  offset="0" style="stop-color:#FF4628"/>
		<stop  offset="1" style="stop-color:#D4145A"/>
	</linearGradient>
	<path class="st3" d="M508.5,29.5l-6.5,7.2c-14,15.3-30,7.7-50.5,4.8c-8.2-1.1-48.4-14.5-76-14c-23.7,0.4-54.2,7.4-78,2
		c-31-7-78,2-126,5c-48.9,3.1-71.5-1-99-1C50.5,33.5,8,42,1,43.7L-8.5,46v120.9l517,1V29.5z"/>
</g>
</svg>
